<?xml version="1.0" standalone="no"?><!DOCTYPE svg PUBLIC "-//W3C//DTD SVG 1.1//EN" "http://www.w3.org/Graphics/SVG/1.1/DTD/svg11.dtd"><svg t="1721748218446" class="icon" viewBox="0 0 1053 1024" version="1.1" xmlns="http://www.w3.org/2000/svg" p-id="2023" xmlns:xlink="http://www.w3.org/1999/xlink" width="263.25" height="256"><path d="M933.014465 832.420049c-7.99138 78.559608-64.624849 135.251592-121.755689 126.349061L214.446498 870.980963c-57.218612-8.898351-96.745012-63.400229-90.872686-121.387885a2424.894694 2424.894694 0 0 0 0-493.722645C117.705665 197.886955 157.232065 143.389257 214.454857 134.486727l596.808098-87.788147c57.13502-8.898351 113.76431 47.793633 121.75569 126.35324a3238.385371 3238.385371 0 0 1-0.00418 659.368229z" fill="#7FCAFF" p-id="2024"></path><path d="M806.046824 992.937273L210.241829 898.574629c-71.571331-12.091559-120.075494-79.922155-112.828082-151.65649a2398.847478 2398.847478 0 0 0 0-488.368588C90.162155 186.819396 138.670498 118.980441 210.237649 106.897241l595.804996-94.366825c71.425045-12.091559 143.029812 58.447412 153.140245 157.846466a3265.372996 3265.372996 0 0 1 0 664.726465c-10.110433 99.390694-81.7152 169.925486-153.136066 157.833926zM218.362776 162.113829c-43.099951 6.127282-73.105241 46.920098-68.61636 91.081665a2451.539592 2451.539592 0 0 1 0 499.076702c-4.488882 44.161567 25.512229 84.962743 68.61218 91.085845l597.744326 81.20529c43.049796 6.127282 84.7872-36.324833 90.747298-94.8224a3212.643265 3212.643265 0 0 0 0-654.014172c-5.964278-58.497567-47.697502-100.941322-90.747298-94.81822L218.362776 162.113829z" fill="#7FCAFF" p-id="2025"></path><path d="M352.247641 417.48689l-84.131004 2.712555c-14.524082 0.438857-26.674155-11.644343-27.34289-26.987625-0.660376-15.334922 10.398824-28.433763 24.906188-29.252963l84.047412-4.564114c14.499004-0.8192 26.995984 11.6736 27.693975 27.902955 0.710531 16.233535-10.662139 29.750335-25.173681 30.189192zM812.044539 279.464229l-188.896653 13.600391c-14.499004 1.015641-27.24258-12.363233-28.697078-29.863183-1.450318-17.499951 8.91089-32.805616 23.376457-34.197421l188.553927-17.754906c14.461388-1.391804 27.65218 12.889861 29.232065 31.919543 1.584065 19.021322-9.073894 35.284114-23.568718 36.295576z" fill="#FFFFFF" p-id="2026"></path><path d="M928.120163 859.553959a3425.622727 3425.622727 0 0 0-7.251592-9.667396c-92.711706-158.561176-197.134629-302.995331-310.196767-432.22831a2606.6944 2606.6944 0 0 1-166.715559 194.430433c80.515657 99.892245 155.556049 208.58671 223.704294 325.560947l143.602416 21.123657c50.293029 7.694629 100.1472-34.970645 116.857208-99.219331z" fill="#CCB527" p-id="2027"></path><path d="M806.046824 992.937273l-143.364179-22.707722c-6.892147-1.090873-12.956735-5.558857-16.885551-12.38831-67.329045-116.878106-141.587853-225.518237-221.355363-325.389584-4.660245-5.83471-7.084408-13.525159-6.770939-21.420408 0.317649-7.895249 3.347853-15.36418 8.459494-20.810188a2589.863184 2589.863184 0 0 0 165.202547-194.434612c9.788604-12.747755 26.42338-13.533518 37.173289-1.379265 113.714155 128.773224 218.906122 272.701649 312.52898 430.727836 2.089796 2.741812 4.175412 5.487804 6.252669 8.242156 6.871249 9.061355 9.094792 22.987755 5.696784 35.931951-21.583412 82.613812-85.259494 133.851429-146.937731 123.628146z m-122.97613-86.442318c44.345469 6.018612 88.690939 12.045584 133.032228 18.068376 32.270629 4.472163 64.603951-18.268996 80.879282-56.340898-85.71089-147.710955-181.6576-283.158988-285.340735-405.445486a2623.207967 2623.207967 0 0 1-130.520293 150.799673c72.106318 90.697143 139.765551 188.466155 201.949518 292.918335z" fill="#CCB527" p-id="2028"></path><path d="M384.20062 540.697078C303.676604 628.184294 218.860147 707.730286 130.925714 779.075918c-1.876637 1.525551-3.757453 3.046922-5.638269 4.564115 8.973584 43.660016 43.338188 80.411167 89.163233 87.34511l453.205681 66.66449c-84.732865-145.453976-180.132049-278.093322-283.455739-396.952555z" fill="#FFE95F" p-id="2029"></path><path d="M662.682645 970.233731l-452.440816-71.659102c-55.948016-9.144947-99.290384-53.728653-110.717388-109.480229a26.937469 26.937469 0 0 1 9.395722-26.281273c89.309518-72.566073 175.363135-153.671053 256.898613-243.030727 4.965355-5.441829 11.665241-8.513829 18.640979-8.492931 6.975739 0.020898 13.663086 3.147233 18.553208 8.731168 104.2432 118.863412 200.612049 251.561273 286.373094 397.128098 6.14818 10.419722 6.332082 24.947984 0.434678 36.613224-5.884865 11.6736-16.643135 18.143608-27.13809 16.471772zM155.668898 793.303249c10.812604 26.532049 34.239216 46.142694 62.693878 50.058971l390.988277 53.118433c-69.230759-113.124833-145.052735-218.028408-226.057404-314.213355-72.854465 76.728947-149.002449 147.134171-227.624751 211.035951z" fill="#FFE95F" p-id="2030"></path></svg>