<svg t="1721746788851" class="icon" viewBox="0 0 1024 1024" version="1.1" xmlns="http://www.w3.org/2000/svg" p-id="7582" width="64" height="64"><path d="M310.442667 158.47619l210.70019 164.864 151.966476-118.735238 0.097524 0.121905L732.306286 158.47619H853.333333a73.142857 73.142857 0 0 1 73.142857 73.142858v560.761904a73.142857 73.142857 0 0 1-73.142857 73.142858h-195.047619a73.142857 73.142857 0 0 1-73.142857-73.142858v-97.523809a73.142857 73.142857 0 0 1 14.628572-43.885714l92.038095-122.709334a12.190476 12.190476 0 0 0-14.287238-18.651428l-1.950476 1.024-110.83581 69.802666a48.761905 48.761905 0 0 1-51.2 0.487619l-3.510857-2.340571-179.248762-130.657524a12.190476 12.190476 0 0 0-18.16381 15.116191l1.121524 1.901714 135.509334 186.294857A73.142857 73.142857 0 0 1 463.238095 694.272V792.380952a73.142857 73.142857 0 0 1-73.142857 73.142858H170.666667a73.142857 73.142857 0 0 1-73.142857-73.142858v-560.761904a73.142857 73.142857 0 0 1 73.142857-73.142858h139.776z m-25.234286 73.142858H170.666667v560.761904h219.428571v-98.108952l-137.435428-188.952381-4.510477-7.509333-1.438476-2.974476a85.333333 85.333333 0 0 1 122.806857-108.982858l4.33981 2.974477 32.841143 23.917714 55.05219-43.008-176.542476-138.142476z m472.307809 0l-236.129523 184.807619-0.292572-0.24381-52.931047 41.350095 71.558095 52.175238 99.620571-62.707809 7.801905-3.998476 3.072-1.219048a85.333333 85.333333 0 0 1 103.131429 126.049524l-3.023238 4.315429L658.285714 694.832762V792.380952h195.047619v-560.761904h-95.817143z" p-id="7583" fill="#393535"></path></svg>