<?xml version="1.0" standalone="no"?><!DOCTYPE svg PUBLIC "-//W3C//DTD SVG 1.1//EN" "http://www.w3.org/Graphics/SVG/1.1/DTD/svg11.dtd"><svg t="1721826333827" class="icon" viewBox="0 0 1024 1024" version="1.1" xmlns="http://www.w3.org/2000/svg" p-id="4466" xmlns:xlink="http://www.w3.org/1999/xlink" width="256" height="256"><path d="M365.714286 438.857143h292.571428V329.142857c0-80.566857-65.718857-146.285714-146.285714-146.285714S365.714286 248.576 365.714286 329.142857v109.714286z m475.428571 54.857143v329.142857a54.857143 54.857143 0 0 1-54.857143 54.857143h-548.571428A54.857143 54.857143 0 0 1 182.857143 822.857143v-329.142857A54.857143 54.857143 0 0 1 237.714286 438.857143H256V329.142857c0-140.580571 115.419429-256 256-256s256 115.419429 256 256v109.714286h18.285714a54.857143 54.857143 0 0 1 54.857143 54.857143z" fill="#515151" p-id="4467"></path></svg>